<?xml version="1.0" encoding="utf-8"?>
<!-- Generator: Adobe Illustrator 27.0.0, SVG Export Plug-In . SVG Version: 6.00 Build 0)  -->
<svg version="1.1" id="Layer_1" xmlns="http://www.w3.org/2000/svg" xmlns:xlink="http://www.w3.org/1999/xlink" x="0px" y="0px"
	 viewBox="0 0 580.9 146.9" style="enable-background:new 0 0 580.9 146.9;" xml:space="preserve">
<style type="text/css">
	.st0{fill:#FFFFFF;}
</style>
<path class="st0" d="M154.3,91c7.4-2.4,14.9-4.6,22.1-7.5c4.9-2,9.6-4.7,13.9-7.7c6.3-4.4,6.5-11.2,1-16.3
	c-4.9-4.7-11.3-5.7-17.6-6.9c-2.2-0.4-4.3-0.9-6.5-1.4c-2.7-0.6-2-1.9-0.7-3.4c5.9-7.1,13.7-11.6,21.7-15.6
	c13.3-6.6,26.7-13,40.2-19c1.9-0.9,3.8-1.9,5.8-2.8l0,0c0,0,9-3.9,9.5-3.2c0.4,0.6-3.6,4.5-6.2,6.3l-0.1,0.1l-0.1,0.1l0,0l0,0
	c-8,5.6-16.1,10.9-24.2,16.3c-1.5,1-2.9,1.8-2.3,3.9c0.4,1.5,3.1,2.2,5.1,1.3c0.8-0.3,1.4-0.9,2.1-1.4c8.8-6,17.7-11.9,26.3-18.1
	c3.6-2.6,7.4-5.6,10-8.9c0.8-1.1,1.5-3.2,1.1-4.5c-0.7-2.2-3-2.5-5-2c-3.5,0.8-7,1.8-10.4,3c-22.4,8.2-43.6,18.9-64.4,30.5
	c-5.3,3-11,5.6-15.2,10.4c-4.4,5-4,10.8,1.4,14.2c3,1.9,6.6,3,10,4c3.7,1.1,7.6,1.6,11.3,2.8c2.4,0.7,2.8,3,0.9,4.6
	c-3.7,3-7.5,5.8-11.5,8.4c-6.1,3.9-12.5,7.5-18.7,11.3c-0.6,0.4-1.2,0.9-1.8,1.3C150.9,91.5,153.2,91.3,154.3,91z"/>
<path class="st0" d="M10.8,100.6c0.4,0.2,1.2,0.3,1.5,0c1.1-0.9,2.1-1.9,3.1-2.9c12.5-12.6,25-25.2,35.9-39.2
	c3.2-4.2,7.3-7.9,11.5-11.1c4.1-3.1,6.2-7,7.7-11.6c0.2-0.6,0.2-1.7-0.3-1.9c-0.4-0.3-1.2,0.1-1.5,0.4c-3.4,3.3-6.8,6.7-10.2,10.1
	c-0.3,0.3-1,0.7-1.4,0.6c-0.9-0.2-0.4-1.8-0.1-2.2c6.5-8.5,16.1-18.8,21.6-23.7c2.3-2.1,4.5-4.3,7.2-6.3l0,0c0,0,8.3-6.8,19-6.4
	c1.4,0,2.7,0.2,4,0.5h0.1c0.2,0,0.3,0.1,0.4,0.1c0.4,0.1,0.8,0.2,1.1,0.3h0.1c13.1,4.2,13.4,21.7,6.6,34.6c-0.1,0.3-0.3,0.5-0.4,0.7
	s-0.3,0.5-0.4,0.7s-0.2,0.3-0.3,0.5c0,0.1-0.1,0.1-0.1,0.2c-2.3,3.9-4.8,7.8-7.7,11.4c-5.6,7-12.1,13.2-18.8,19.2
	c-12.1,10.8-25.3,19.5-40.1,26c-4.4,1.9-9,3.2-13.9,2.6c-2.1-0.2-2.7-1.4-3-3.3c-0.2-1.6,0.5-4.5,1.5-6.4c1.7-3.2,4-6.1,5.9-9.1
	c0.2-0.4,0.4-1,0.3-1.4c-0.4-0.6-1.3-0.2-1.5,0.1c-2.2,2.5-4.4,5-6.5,7.7c-3.3,4.3-4.8,9.9-2.1,14.2c2.7,4.3,8.5,5.2,13.8,4.4
	c9.2-1.5,18-4.3,25.9-9.2c19.2-12.1,35.4-27.5,47.7-46.6v0.1c0.3-0.4,0.5-0.8,0.8-1.2c0.1-0.1,0.2-0.2,0.2-0.3
	c0.1-0.1,0.1-0.3,0.2-0.4c0.5-0.8,0.9-1.5,1.4-2.3c0.2-0.3,0.4-0.7,0.5-1c0.3-0.7,0.7-1.3,1-2c0.3-0.6,0.5-1.1,0.8-1.7
	c6.5-15.1,5.8-32.1-5.5-39.9c-0.7-0.5-1.4-1-2.2-1.4c0,0,0,0-0.1,0C98.7-5,81,8.4,81,8.4C67.4,17.7,58.5,31,49.1,44
	c-1.8,2.4-2,5.3,0.6,7.6c1.4,1.3,1.8,1.3-0.1,3.3c-10,10.6-20,21.4-30.1,32c-1.4,1.5-2.7,3.9-5.5,1.8c-0.2-0.2-1-0.3-1.2,0.3
	c-1.1,3.4-2.5,7.8-2.7,9.6C10.1,99,9.9,100.1,10.8,100.6z"/>
<circle class="st0" cx="490.3" cy="18.8" r="6.5"/>
<circle class="st0" cx="123.3" cy="77.8" r="6.5"/>
<path class="st0" d="M228.9,67.4c-5.1,3.1-9.7,6.6-16.2,5.3c-0.6-0.1-1.9,0.9-1.8,1.1c0.3,1,0.7,2.5,1.4,2.7
	c5.2,1.8,10.7,2.4,15.5-0.2c9.9-5.3,20.7-8.3,31.3-11.9c17.8-6.1,36-10.2,55.1-8.9c7.7,0.5,15-0.7,22.2-3.3
	c3.4-1.2,6.9-2.3,10.5-2.8c6.1-0.9,12.3-2.6,18.2-1.8c7.6,1.1,15.1,0.8,22.7,1.2c4.8,0.2,9.6,0,14.4,0.4c8.9,0.8,17.7,2.5,26.6,2.8
	c13,0.5,25.9,0.2,38.9,0.2c2.2,0,4.7,0.2,6.6-0.7c6.9-3.2,14.2-2.7,23.4-2.9c2.4,0,6.7,0.6,10.8-0.1c4.5-0.8,10.9-2.1,17.1-3.4
	c3.1-0.5,7.1-1.5,11.4-2.4c5.1-1.1,8.8-1.9,8.9-2l0,0c2.4-0.5,4.9-0.9,7.2-1.3c9.9-1.4,8.9-0.5,8.9-0.5c-4.9,2-5.4,8.6-4.3,6.5
	c1.2-2.2,7-5.8,11.9-6.1s7.8-0.3,6.5-3s-23.6-2.2-29.5-1.4c-5.6,0.7-16.6,2.8-18.2,3.1c-10,1.6-20,2.8-30.2,2.6
	c-8.9-0.2-18-0.9-26.5,3.1c-1.6,0.8-3.9,0.4-5.9,0.4c-6.2,0.1-12.4,0.3-18.6,0.1c-13.7-0.5-27.5-1.4-41.2-1.7
	c-11.8-0.3-23.7,0.2-35.5-0.3c-12.9-0.6-25.1,1.6-36.9,6.3c-0.8,0.3-1.6,0.4-2.4,0.7c-5.1,2.3-10.3,2.2-15.6,0.7
	c-13.8-3.9-27.7-2.8-41.4,0.5c-8.4,2.1-16.7,4.5-24.8,7.5C242.3,60.5,235.3,63.6,228.9,67.4z"/>
<path class="st0" d="M580.9,77.9c-0.4-2.2-1.9-3.5-4.1-3.5c-5.3,0.2-10.7,0.5-16,0.9c-1.9,0.1-4,1-5.8,0.5c-8-2.3-16.2-1.6-24.3-1.4
	c-37.7,0.8-75.5-1.6-113.2,1.5c-8.4,0.7-16.9,0.5-25.4,0.2c-14.1-0.5-28,0.7-41.8,3.7c-5.6,1.2-11.1,1.3-16.7,1.6
	c-7,0.4-13.9,1.1-20.9,1.7c-5.8,0.5-11.7,0.9-17.5,1.8c-9.4,1.6-18.7,3-28.3,3.2c-1.7,0-3.4,0.1-5,0.4c-9.3,1.5-18.7,2.9-28,4.6
	c-9.9,1.7-19.9,2.8-29.5,5.7c-18.8,5.6-37.8,10-57,13.9c-6.7,1.3-15.9,2.6-29.5,4.4c-15.3,2-32.1,7.4-32.1,7.4l0,0
	c-7.8,2.4-20.1,6.4-36.8,12.7c-30.6,11.7-46,2.9-49,1.8c0,0,3.7,3.6,11.6,6c0.2,0,0.5,0.1,0.9,0.2l0,0c8,2.2,20,3,36.6-2.1
	c6.3-1.9,11.6-3.6,16.2-5.1c0.1-0.1,9.8-3.9,26-8.3c1.4-0.4,2.7-0.8,3.9-1.1c2.7-0.7,5.4-1.3,8.1-1.9c7-1.7,14.9-3.4,23.4-4.8
	c0.2,0,0.3,0,0.5-0.1c3.1-0.6,6.2-1.2,9.3-1.6c13.6-1.8,26.9-4.7,40.2-7.8c13.3-3.1,26.4-6.6,39.7-9.7c7.6-1.8,15.2-3.3,22.9-4.4
	c10.8-1.6,21.5-4,32.4-3.7c2,0,4,0,5.9-0.2c13.6-1.6,27.1-3.7,40.7-4.6c12.3-0.8,24.6-1.3,36.7-3.6c3.6-0.6,7.1-1.5,10.7-1.7
	c13.7-0.7,27.5-1.1,41.2-1.3c43.7-0.8,87.5-0.4,131.2-0.5c2.8,0,5.7-0.2,8.4,0.5c8.7,2.2,17.4,0.8,26,0.8c1.9,0,3.8-0.8,5.6-1.5
	C580.2,81.8,581.3,80.2,580.9,77.9z"/>
</svg>
