<?xml version="1.0" encoding="utf-8"?>
<!-- Generator: Adobe Illustrator 25.4.8, SVG Export Plug-In . SVG Version: 6.00 Build 0)  -->
<svg version="1.1" id="Layer_1" xmlns="http://www.w3.org/2000/svg" xmlns:xlink="http://www.w3.org/1999/xlink" x="0px" y="0px"
	 viewBox="0 0 200 200" style="enable-background:new 0 0 200 200;" xml:space="preserve">
<style type="text/css">
	.st0{fill:#828282;}
	.st1{fill:#565656;}
	.st2{fill-rule:evenodd;clip-rule:evenodd;fill:#FFFFFF;}
	.st3{fill:#212121;}
	.st4{fill:#AFAFAF;}
</style>
<g>
	<path d="M119.9,19.9c-43.3,0-78.7,34.4-80.1,77.4h80.1v23.2H42.4c0.6,2.3,1.3,4.5,2.1,6.7h75.4v23.2H57.5c1.9,2.3,3.9,4.6,6,6.7
		h56.4v23.2h0c0,0,0,0,0,0c44.3,0,80.1-35.9,80.1-80.1S164.1,19.9,119.9,19.9z"/>
	<path class="st4" d="M0,157v23.2h119.9c-22,0-41.9-8.8-56.3-23.2H0z"/>
	<path class="st1" d="M119.9,157H63.5c14.5,14.3,34.4,23.2,56.3,23.2h0V157z"/>
	<path class="st4" d="M0,127.1v23.2h57.5c-5.6-6.9-10-14.7-13-23.2H0z"/>
	<path class="st1" d="M119.9,127.1H44.4c3,8.5,7.5,16.3,13,23.2h62.4V127.1z"/>
	<path class="st4" d="M39.8,97.3H0v23.2h42.4c-1.7-6.5-2.6-13.4-2.6-20.5C39.7,99.1,39.8,98.2,39.8,97.3z"/>
	<path class="st1" d="M119.9,97.3H39.8c0,0.9-0.1,1.8-0.1,2.7c0,7.1,0.9,13.9,2.6,20.5h77.5V97.3z"/>
</g>
</svg>
