<?xml version="1.0" encoding="utf-8"?>
<!-- Generator: Adobe Illustrator 25.4.8, SVG Export Plug-In . SVG Version: 6.00 Build 0)  -->
<svg version="1.1" id="Layer_1" xmlns="http://www.w3.org/2000/svg" xmlns:xlink="http://www.w3.org/1999/xlink" x="0px" y="0px"
	 viewBox="0 0 200 200" style="enable-background:new 0 0 200 200;" xml:space="preserve">
<style type="text/css">
	.st0{fill:#828282;}
	.st1{fill:#565656;}
	.st2{fill-rule:evenodd;clip-rule:evenodd;fill:#FFFFFF;}
	.st3{fill:#212121;}
	.st4{fill:#AFAFAF;}
</style>
<g>
	<path d="M18,96.6c0-37.2,30.1-67.3,67.3-67.3h0v29.3c20.9,0,38,17,38,38v28.9h29.3v33.7L25.3,200v-74.4l60-28.9H18z"/>
	<path class="st4" d="M85.3,29.3L85.3,29.3V0C138.6,0,182,43.3,182,96.6v28.9h-29.3V96.6C152.6,59.5,122.5,29.3,85.3,29.3z"/>
	<path class="st1" d="M123.3,96.6c0-20.9-17-38-38-38V29.3l0,0c37.2,0,67.3,30.1,67.3,67.3v28.9h-29.3V96.6z"/>
</g>
</svg>
