<?xml version="1.0" encoding="utf-8"?>
<!-- Generator: Adobe Illustrator 25.4.8, SVG Export Plug-In . SVG Version: 6.00 Build 0)  -->
<svg version="1.1" id="Layer_1" xmlns="http://www.w3.org/2000/svg" xmlns:xlink="http://www.w3.org/1999/xlink" x="0px" y="0px"
	 viewBox="0 0 200 200" style="enable-background:new 0 0 200 200;" xml:space="preserve">
<style type="text/css">
	.st0{fill:#828282;}
	.st1{fill:#565656;}
	.st2{fill-rule:evenodd;clip-rule:evenodd;fill:#FFFFFF;}
	.st3{fill:#212121;}
	.st4{fill:#AFAFAF;}
</style>
<g>
	<path d="M100,0C51.9,0,12.9,39,12.9,87.1c0,37.4,23.5,69.2,56.6,81.6v-36.3h13V80.9H91v51.4h18.7V80.9h8.5v51.4h15.6v35
		c31.3-13.2,53.3-44.2,53.3-80.3C187.1,39,148.1,0,100,0z"/>
	<path class="st4" d="M69.5,168.7V200h64.3v-32.7c-10.4,4.4-21.8,6.8-33.8,6.8C89.3,174.2,79,172.2,69.5,168.7z"/>
	<path class="st1" d="M118.2,132.4h-8.5H91h-8.5h-13v36.3c9.5,3.6,19.8,5.5,30.5,5.5c12,0,23.4-2.4,33.8-6.8v-35H118.2z"/>
	<rect x="82.5" y="80.9" class="st4" width="8.5" height="51.4"/>
	<rect x="109.7" y="80.9" class="st4" width="8.5" height="51.4"/>
</g>
</svg>
