<?xml version="1.0" encoding="utf-8"?>
<!-- Generator: Adobe Illustrator 25.4.8, SVG Export Plug-In . SVG Version: 6.00 Build 0)  -->
<svg version="1.1" id="Layer_1" xmlns="http://www.w3.org/2000/svg" xmlns:xlink="http://www.w3.org/1999/xlink" x="0px" y="0px"
	 viewBox="0 0 200 200" style="enable-background:new 0 0 200 200;" xml:space="preserve">
<style type="text/css">
	.st0{fill:#828282;}
	.st1{fill:#565656;}
	.st2{fill-rule:evenodd;clip-rule:evenodd;fill:#FFFFFF;}
	.st3{fill:#212121;}
	.st4{fill:#AFAFAF;}
</style>
<g>
	<path d="M178.5,32.7l-11.2-11.2c-28.7-28.7-75.2-28.7-103.9,0L41.9,43c-22.5,22.5-27.4,56.1-14.5,83.4l21.1-27.3l52.4,52.4
		l-27.3,21.1c27.3,12.9,60.8,8.1,83.4-14.5l21.5-21.5C207.2,107.9,207.2,61.4,178.5,32.7z"/>
	<path class="st4" d="M41.9,146.9c-6.1-6.1-11-13.1-14.5-20.5L0,161.9L38.1,200l35.6-27.5c-7.4-3.5-14.4-8.3-20.5-14.5L41.9,146.9z"
		/>
	<path class="st1" d="M48.5,99.1l-21.1,27.3c3.5,7.4,8.3,14.4,14.5,20.5l11.2,11.2c6.1,6.1,13.1,11,20.5,14.5l27.3-21.1L48.5,99.1z"
		/>
	
		<rect x="11.8" y="178.7" transform="matrix(0.7071 -0.7071 0.7071 0.7071 -125.382 65.2244)" class="st1" width="8.5" height="10.5"/>
</g>
</svg>
