<?xml version="1.0" encoding="utf-8"?>
<!-- Generator: Adobe Illustrator 25.4.8, SVG Export Plug-In . SVG Version: 6.00 Build 0)  -->
<svg version="1.1" id="Layer_1" xmlns="http://www.w3.org/2000/svg" xmlns:xlink="http://www.w3.org/1999/xlink" x="0px" y="0px"
	 viewBox="0 0 200 200" style="enable-background:new 0 0 200 200;" xml:space="preserve">
<style type="text/css">
	.st0{fill:#828282;}
	.st1{fill:#565656;}
	.st2{fill-rule:evenodd;clip-rule:evenodd;fill:#FFFFFF;}
	.st3{fill:#212121;}
	.st4{fill:#AFAFAF;}
</style>
<g>
	<path class="st4" d="M54.7,30.1L54.7,30.1L5.9,94.9c-14.1,18.7-1.3,46.2,21.5,46.2h0c0.7,0,1.4,0,2.1-0.1L54.3,31.5
		C54.4,31.1,54.5,30.6,54.7,30.1z"/>
	<path class="st4" d="M194.1,94.9l-48.8-64.8v0c0.2,0.6,0.3,1.3,0.5,1.9l23.5,108.9c1.1,0.1,2.2,0.2,3.4,0.2h0
		C195.4,141.2,208.2,113.7,194.1,94.9z"/>
	<path d="M145.3,112.6V30.1c-4.7-17.7-20.1-30-37.7-30H92.4c-17.7,0-33.1,12.4-37.7,30v82.5c0,15-11.1,27.4-25.2,28.5l-1.9,8.5
		c-5.8,25.7,12.8,50.4,38.1,50.4h67.4c25.1,0,43.7-24.3,38.2-49.9l-2-9.1C155.8,139.2,145.3,127.2,145.3,112.6z M143.5,168.7
		c0,11.2-9.1,20.3-20.3,20.3h-3.2c-11.2,0-20.3-9.1-20.3-20.3l0,0l0,0c0,11.2-9.1,20.3-20.3,20.3H76c-11.2,0-20.3-9.1-20.3-20.3
		v-16.3c0-11.3,9.1-20.4,20.4-20.4h23.5h23.5c11.3,0,20.4,9.1,20.4,20.4V168.7z"/>
	<path class="st1" d="M54.7,112.6V30.1c-0.1,0.5-0.2,1-0.4,1.4L29.5,141.1C43.6,139.9,54.7,127.6,54.7,112.6z"/>
	<path class="st1" d="M145.3,30.1v82.5c0,14.6,10.5,26.6,24,28.3L145.8,32C145.6,31.4,145.5,30.7,145.3,30.1z"/>
	<path class="st1" d="M123.1,132H99.6H76.1c-11.3,0-20.4,9.1-20.4,20.4v16.3c0,11.2,9.1,20.3,20.3,20.3h3.2
		c11.2,0,20.3-9.1,20.3-20.3l-9.8-17.7c-1.8-3.2,0.6-7.2,4.3-7.2h11c3.7,0,6,4,4.3,7.2l-9.8,17.7c0,11.2,9.1,20.3,20.3,20.3h3.2
		c11.2,0,20.3-9.1,20.3-20.3v-16.3C143.5,141.2,134.3,132,123.1,132z"/>
	<path d="M94,143.9c-3.7,0-6,4-4.3,7.2l9.8,17.7c0,0,0,0,0-0.1c0,0,0,0,0,0.1l9.8-17.7c1.8-3.2-0.6-7.2-4.3-7.2H94z"/>
</g>
</svg>
