<?xml version="1.0" encoding="utf-8"?>
<!-- Generator: Adobe Illustrator 25.4.8, SVG Export Plug-In . SVG Version: 6.00 Build 0)  -->
<svg version="1.1" id="Layer_1" xmlns="http://www.w3.org/2000/svg" xmlns:xlink="http://www.w3.org/1999/xlink" x="0px" y="0px"
	 viewBox="0 0 200 200" style="enable-background:new 0 0 200 200;" xml:space="preserve">
<style type="text/css">
	.st0{fill:#828282;}
	.st1{fill:#565656;}
	.st2{fill-rule:evenodd;clip-rule:evenodd;fill:#FFFFFF;}
	.st3{fill:#212121;}
	.st4{fill:#AFAFAF;}
</style>
<g>
	<path d="M74.8,100c0.4-23.5,10.7-40.3,25.2-50.4C63.7,24.4,1,41.2,0,100c1,58.8,63.7,75.6,100,50.4C85.5,140.3,75.2,123.5,74.8,100
		z"/>
	<path class="st0" d="M100,49.6c14.5,10.1,24.8,26.9,25.2,50.4c-0.4,23.5-10.7,40.3-25.2,50.4c36.3,25.2,99,8.4,100-50.4
		C199,41.2,136.3,24.4,100,49.6z"/>
	<path class="st1" d="M125.2,100c-0.4-23.5-10.7-40.3-25.2-50.4C85.5,59.7,75.2,76.5,74.8,100c0.4,23.5,10.7,40.3,25.2,50.4
		C114.5,140.3,124.8,123.5,125.2,100z"/>
</g>
</svg>
