<?xml version="1.0" encoding="utf-8"?>
<!-- Generator: Adobe Illustrator 25.4.1, SVG Export Plug-In . SVG Version: 6.00 Build 0)  -->
<svg version="1.1" id="Layer_1" xmlns="http://www.w3.org/2000/svg" xmlns:xlink="http://www.w3.org/1999/xlink" x="0px" y="0px"
	 viewBox="0 0 438.52 81.35" style="enable-background:new 0 0 438.52 81.35;" xml:space="preserve">
<style type="text/css">
	.st0{fill:#FFFFFF;}
</style>
<g>
	<path d="M327.6,61.86L279.33,2.53h-4.04v76.29h0.11c4.3,0,7.79-3.49,7.79-7.79V19.58l48.05,58.84l0.33,0.4h3.83V2.53l0,0
		c-4.3,0-7.79,3.49-7.79,7.79V61.86z"/>
	<path d="M36.13,2.53L1.91,78.82h0c5.18,0,9.88-3.06,11.96-7.81l26.04-59.19l26.13,59.21c2.09,4.74,6.78,7.79,11.96,7.79h0.01
		L43.78,2.53H36.13z"/>
	<path d="M155.85,43.54c4.2-4.24,6.49-10.22,6.43-16.85c-0.11-11.64-8.11-24.16-25.44-24.16h-33.7v76.29h0
		c4.36,0,7.89-3.53,7.89-7.89V10h25.81c5.07,0,9.36,1.63,12.42,4.73c2.98,3.02,4.66,7.34,4.6,11.86
		c-0.11,10.71-6.38,16.6-17.65,16.6h-13.43l25.47,27.9c4.5,4.93,10.87,7.74,17.54,7.74h0l-26.23-28.45
		C146.24,49.92,151.84,47.58,155.85,43.54z"/>
	<path d="M402.39,2.53h-7.66l-34.22,76.29h0.01c5.18,0,9.87-3.06,11.96-7.79l26.13-59.21l26.04,59.19
		c2.09,4.74,6.78,7.81,11.96,7.81l0,0L402.39,2.53z"/>
	<path d="M191.91,2.53v7.52v26.86v7.52V71.3v7.52h7.89h39.17c4.15,0,7.52-3.37,7.52-7.52v0h-46.69V44.44h34.81
		c4.15,0,7.52-3.37,7.52-7.52v0h-42.33V10.05h39.17c4.15,0,7.52-3.37,7.52-7.52v0h-46.69H191.91z"/>
</g>
</svg>
